Coordinates
version=1
nRows=27
nColumns=38
inDegrees=no

Units are S.I. units (second, meters, Newtons, ...)
If the header above contains a line with 'inDegrees', this indicates whether rotational values are in degrees (yes) or radians (no).

endheader
time	pelvis_tilt	pelvis_list	pelvis_rotation	pelvis_tx	pelvis_ty	pelvis_tz	hip_flexion_r	hip_adduction_r	hip_rotation_r	knee_angle_r	ankle_angle_r	subtalar_angle_r	mtp_angle_r	hip_flexion_l	hip_adduction_l	hip_rotation_l	knee_angle_l	ankle_angle_l	subtalar_angle_l	mtp_angle_l	lumbar_extension	lumbar_bending	lumbar_rotation	arm_flex_r	arm_add_r	arm_rot_r	elbow_flex_r	pro_sup_r	wrist_flex_r	wrist_dev_r	arm_flex_l	arm_add_l	arm_rot_l	elbow_flex_l	pro_sup_l	wrist_flex_l	wrist_dev_l
0.52	0.126368	1.36691	1.45494	0.880273	0.323967	1.04619	0.513484	-0.0916474	-0.112439	0.917886	-0.107781	0	0	0.143613	-0.0250579	-0.296138	0.188303	-0.150806	0	0	0.13323	0.00829343	0.0465312	-0.27667	-0.299737	0.269658	0.557041	1.32378	0	0	-0.236676	-0.137775	-0.427398	0.397185	0.992516	0	0
0.53	0.142655	1.3669	1.44403	0.88	0.334508	1.0464	0.518643	-0.0890395	-0.124701	0.869587	-0.101475	0	0	0.127678	-0.0270446	-0.294391	0.177989	-0.152982	0	0	0.130111	0.0104448	0.0465339	-0.277802	-0.29646	0.26665	0.549722	1.32006	0	0	-0.233753	-0.138308	-0.431707	0.401895	1.00103	0	0
0.54	0.15843	1.36755	1.43416	0.879735	0.344954	1.04649	0.521068	-0.0861542	-0.136524	0.815726	-0.0986838	0	0	0.112476	-0.029503	-0.29217	0.170232	-0.15453	0	0	0.125284	0.0119181	0.046036	-0.276779	-0.293336	0.267049	0.54104	1.31704	0	0	-0.230913	-0.138839	-0.436126	0.408818	1.00832	0	0
0.55	0.173031	1.36789	1.42522	0.879576	0.355415	1.04639	0.521751	-0.0823808	-0.147038	0.756956	-0.0992217	0	0	0.0972048	-0.0317814	-0.288991	0.16197	-0.156688	0	0	0.121711	0.0132272	0.0428931	-0.27029	-0.298976	0.304708	0.532489	1.27647	0	0	-0.234194	-0.146686	-0.398366	0.419198	0.970716	0	0
0.56	0.187571	1.3681	1.41545	0.879558	0.36591	1.04606	0.520481	-0.0770458	-0.154981	0.692927	-0.103386	0	0	0.0819007	-0.0343568	-0.286836	0.15403	-0.157976	0	0	0.116892	0.0143884	0.0442499	-0.269518	-0.292842	0.293593	0.52218	1.29759	0	0	-0.22483	-0.135519	-0.469207	0.423699	1.04236	0	0
0.57	0.198448	1.3672	1.40862	0.879719	0.376477	1.04542	0.518547	-0.0708342	-0.159796	0.623978	-0.109945	0	0	0.0681501	-0.0366211	-0.285405	0.146807	-0.157525	0	0	0.114087	0.0154716	0.0456043	-0.267891	-0.291452	0.299526	0.514295	1.29779	0	0	-0.222954	-0.137359	-0.466495	0.43159	1.04078	0	0
0.58	0.206626	1.36567	1.40424	0.879988	0.38712	1.04449	0.515091	-0.0638836	-0.161913	0.549115	-0.120227	0	0	0.0550031	-0.0383727	-0.283263	0.139457	-0.156271	0	0	0.112256	0.0160708	0.0472077	-0.266352	-0.290328	0.306177	0.506945	1.29897	0	0	-0.221559	-0.13945	-0.46365	0.439901	1.03847	0	0
0.59	0.210141	1.36303	1.40446	0.880326	0.397802	1.04323	0.510985	-0.0569926	-0.160567	0.469587	-0.132841	0	0	0.0429364	-0.0395843	-0.280498	0.13201	-0.154636	0	0	0.111173	0.0153213	0.0484084	-0.264032	-0.289077	0.313735	0.499576	1.30096	0	0	-0.221652	-0.141797	-0.461247	0.450803	1.03537	0	0
0.6	0.207438	1.35981	1.41094	0.880718	0.408533	1.04173	0.505488	-0.0507432	-0.155009	0.38539	-0.149706	0	0	0.0323731	-0.0400176	-0.277219	0.125781	-0.153055	0	0	0.110979	0.0132653	0.0492845	-0.261307	-0.287979	0.322548	0.492284	1.3033	0	0	-0.222388	-0.144877	-0.45721	0.461967	1.03025	0	0
0.61	0.198148	1.35627	1.42438	0.881135	0.419348	1.03991	0.49957	-0.0462062	-0.14692	0.300817	-0.160801	0	0	0.0233092	-0.0393626	-0.2742	0.121723	-0.151894	0	0	0.110766	0.00989474	0.0514939	-0.26169	-0.285236	0.318413	0.488196	1.31769	0	0	-0.222018	-0.147777	-0.456077	0.473126	1.02972	0	0
0.62	0.183955	1.35316	1.44312	0.881591	0.43027	1.03787	0.492555	-0.0432705	-0.136454	0.216465	-0.178693	0	0	0.0145293	-0.0376488	-0.271149	0.119165	-0.149533	0	0	0.110728	0.0045902	0.0518839	-0.260208	-0.283992	0.323401	0.483868	1.32466	0	0	-0.223241	-0.149013	-0.464831	0.486946	1.03639	0	0
0.63	0.165432	1.3502	1.46633	0.882092	0.441326	1.03565	0.485988	-0.042033	-0.125475	0.13671	-0.200512	0	0	0.00606564	-0.0350018	-0.267932	0.117695	-0.146054	0	0	0.111428	-0.00182827	0.0501593	-0.255682	-0.288885	0.355869	0.48121	1.3015	0	0	-0.231723	-0.161104	-0.424269	0.504299	0.9911	0	0
0.64	0.148892	1.34902	1.48754	0.882624	0.452516	1.03342	0.478888	-0.041352	-0.115376	0.0652861	-0.220439	0	0	-0.00397349	-0.0329604	-0.26572	0.117985	-0.139367	0	0	0.10738	-0.00829786	0.0538578	-0.26043	-0.278658	0.311631	0.479126	1.36235	0	0	-0.225411	-0.151753	-0.481422	0.516491	1.04841	0	0
0.65	0.134705	1.34784	1.50699	0.883158	0.463886	1.03112	0.474682	-0.0413622	-0.11085	0.00713152	-0.226177	0	0	-0.0134651	-0.0322169	-0.265662	0.121316	-0.130126	0	0	0.104522	-0.0142058	0.054134	-0.260706	-0.278498	0.312041	0.479729	1.36729	0	0	-0.228293	-0.155279	-0.479385	0.532746	1.04682	0	0
0.66	0.125935	1.3471	1.52157	0.883676	0.475367	1.02886	0.478797	-0.04139	-0.12627	0	-0.217696	0	0	-0.0207121	-0.0339187	-0.269763	0.13082	-0.120724	0	0	0.100587	-0.0188732	0.0544915	-0.261046	-0.27886	0.312067	0.480766	1.3692	0	0	-0.230842	-0.15881	-0.476406	0.549231	1.04782	0	0
0.67	0.119778	1.34587	1.53294	0.884339	0.4869	1.02665	0.483813	-0.0406606	-0.136923	0	-0.210768	0	0	-0.0264309	-0.0363875	-0.272337	0.141452	-0.116287	0	0	0.0978703	-0.0220917	0.0551961	-0.261603	-0.279768	0.311029	0.482013	1.36859	0	0	-0.231194	-0.162107	-0.474264	0.560439	1.04898	0	0
0.68	0.115771	1.34511	1.54199	0.8851	0.498516	1.02459	0.487962	-0.039402	-0.142113	0	-0.203981	0	0	-0.0317239	-0.0395091	-0.272852	0.153405	-0.11307	0	0	0.0950523	-0.0245356	0.055741	-0.261932	-0.280759	0.309218	0.483109	1.3665	0	0	-0.230883	-0.16532	-0.472235	0.56959	1.04937	0	0
0.69	0.113113	1.34449	1.55008	0.885902	0.510213	1.02267	0.492329	-0.0384174	-0.141606	0	-0.199043	0	0	-0.0358864	-0.0432432	-0.270934	0.167337	-0.112797	0	0	0.0926534	-0.0267618	0.0545881	-0.260664	-0.282727	0.313092	0.48281	1.35933	0	0	-0.230032	-0.165043	-0.483969	0.577914	1.06193	0	0
0.7	0.113668	1.34511	1.55433	0.886771	0.522079	1.02103	0.496062	-0.0367008	-0.135728	0	-0.196374	0	0	-0.0406996	-0.0480434	-0.269649	0.182375	-0.111362	0	0	0.0887663	-0.027405	0.0549465	-0.260751	-0.284082	0.309031	0.483499	1.35797	0	0	-0.228639	-0.166978	-0.484291	0.583682	1.06197	0	0
0.71	0.122173	1.3505	1.54929	0.887802	0.534102	1.01984	0.494667	-0.0327872	-0.12366	0	-0.199237	0	0	-0.0471094	-0.0571413	-0.282819	0.207732	-0.103709	0	0	0.0767935	-0.0258585	0.0580174	-0.259512	-0.292114	0.325489	0.490456	1.31359	0	0	-0.233317	-0.184095	-0.421783	0.595414	0.992731	0	0
0.72	0.138423	1.35741	1.53617	0.88878	0.546395	1.01902	0.491168	-0.0267248	-0.111208	0	-0.215483	0	0	-0.055524	-0.067468	-0.29369	0.231547	-0.101528	0	0	0.0624462	-0.0226485	0.0652146	-0.265572	-0.285918	0.275135	0.494549	1.35204	0	0	-0.220972	-0.172153	-0.466087	0.597167	1.03247	0	0
0.73	0.15956	1.36367	1.51895	0.889732	0.559067	1.01824	0.489487	-0.0196149	-0.104526	0.0109524	-0.224796	0	0	-0.062332	-0.0788204	-0.301712	0.257521	-0.102003	0	0	0.0517848	-0.0186296	0.0679412	-0.267293	-0.289085	0.26893	0.498695	1.34199	0	0	-0.218395	-0.172855	-0.46571	0.600949	1.02805	0	0
0.74	0.186363	1.37057	1.49735	0.8906	0.572124	1.0176	0.490276	-0.0116501	-0.113316	0.0544307	-0.230528	0	0	-0.068508	-0.0914364	-0.307647	0.286663	-0.104044	0	0	0.0411986	-0.0135926	0.0691608	-0.270129	-0.292992	0.263519	0.504233	1.33131	0	0	-0.217475	-0.174662	-0.463093	0.604741	1.03099	0	0
0.75	0.217754	1.3766	1.47184	0.891513	0.585483	1.01701	0.488243	-0.00286294	-0.118748	0.0880154	-0.246837	0	0	-0.0723896	-0.104956	-0.30996	0.318568	-0.108432	0	0	0.0328055	-0.00777844	0.0694245	-0.273238	-0.297012	0.260337	0.50899	1.32017	0	0	-0.217774	-0.17738	-0.458972	0.60754	1.03734	0	0
0.76	0.250173	1.37925	1.44499	0.892533	0.598923	1.01641	0.486236	0.0055307	-0.1173	0.108609	-0.273521	0	0	-0.0705255	-0.118806	-0.307225	0.354533	-0.115881	0	0	0.0294434	-0.00157486	0.0701303	-0.27628	-0.300617	0.259	0.511415	1.3071	0	0	-0.218049	-0.181152	-0.45256	0.606831	1.04243	0	0
0.77	0.28008	1.37876	1.42082	0.893658	0.612314	1.01594	0.48574	0.0121163	-0.11329	0.124099	-0.288319	0	0	-0.0625948	-0.132336	-0.296818	0.394614	-0.120786	0	0	0.0299507	0.00416817	0.0707035	-0.279188	-0.299171	0.242799	0.509192	1.31805	0	0	-0.217267	-0.183806	-0.451663	0.603407	1.05052	0	0
0.78	0.310542	1.37572	1.39552	0.894985	0.625614	1.01574	0.487247	0.0189829	-0.113414	0.141491	-0.300455	0	0	-0.0491214	-0.146145	-0.280893	0.439566	-0.138112	0	0	0.0346337	0.0108845	0.0718286	-0.279838	-0.30546	0.260742	0.507982	1.28016	0	0	-0.217778	-0.191699	-0.431401	0.596419	1.03853	0	0
